<?xml version="1.0" encoding="iso-8859-1"?>
<!-- Generator: Adobe Illustrator 18.0.0, SVG Export Plug-In . SVG Version: 6.00 Build 0)  -->
<!DOCTYPE svg PUBLIC "-//W3C//DTD SVG 1.1//EN" "http://www.w3.org/Graphics/SVG/1.1/DTD/svg11.dtd">
<svg version="1.1" id="Capa_1" xmlns="http://www.w3.org/2000/svg" xmlns:xlink="http://www.w3.org/1999/xlink" x="0px" y="0px"
	 viewBox="0 0 466.273 466.273" style="enable-background:new 0 0 466.273 466.273;" xml:space="preserve">
<g>
	<path d="M214.969,244.976c-4.157-2.724-9.736-1.562-12.46,2.596l-9.362,14.289c-1.349,2.06-3.308,2.6-4.355,2.74
		c-1.047,0.138-3.081,0.128-4.92-1.507c-16.676-14.823-39.879-18.823-60.555-10.441l-8.661,3.511
		c-4.606,1.867-6.827,7.115-4.959,11.722c1.579,3.893,5.573,6.071,9.552,5.528c2.574,10.257,8.715,19.298,17.536,25.509
		c7.606,5.356,16.521,8.134,25.581,8.134c4.035,0,8.099-0.551,12.087-1.671l15.017-4.216c4.02-1.128,6.736-4.873,6.56-9.045
		l-0.452-10.703c5.142-1.702,9.608-5.088,12.626-9.696l9.362-14.289C220.289,253.279,219.127,247.7,214.969,244.976z
		 M169.587,288.055c-7.713,2.165-15.892,0.761-22.441-3.85c-5.716-4.025-9.548-10.044-10.805-16.822
		c12.546-2.867,25.71,0.399,35.571,9.165c1.702,1.513,3.591,2.757,5.6,3.722l0.232,5.496L169.587,288.055z"/>
	<path d="M200.516,211.375c0.515,0.088,1.026,0.131,1.531,0.131c4.303,0,8.108-3.096,8.86-7.481l6-35
		c0.84-4.899-2.451-9.552-7.35-10.391c-4.901-0.84-9.551,2.451-10.391,7.35l-6,35C192.326,205.883,195.617,210.535,200.516,211.375z
		"/>
	<path d="M437.301,21.758c-18.926-8.275-40.339-3.954-54.55,11.009l-78.792,82.961c-4.997,5.264-8.796,11.387-11.292,18.196
		l-3.959,10.788c-36.15-10.808-74.992-10.808-111.144,0l-3.959-10.785c-2.497-6.812-6.296-12.935-11.294-18.201l-78.79-82.96
		c-14.212-14.962-35.624-19.285-54.55-11.008C10.106,30.007-1.225,48.596,0.106,69.12c2.45,37.6,8.371,72.463,17.596,103.623
		c11.547,38.999,28.319,72.134,49.842,98.571c-1.488,5.471-1.556,11.314-0.066,16.901l2.953,11.072
		c14.643,54.909,52.038,101.281,102.597,127.226c0.029,0.015,0.059,0.024,0.088,0.039c3.656,2.076,7.641,3.682,11.903,4.721
		c1.899,0.463,3.8,0.799,5.697,1.02c11.635,10.581,26.565,16.373,42.421,16.373c15.859,0,30.792-5.795,42.428-16.381
		c1.894-0.222,3.793-0.551,5.689-1.013c4.297-1.047,8.311-2.672,11.991-4.773c0,0.002,0,0.013,0,0.013
		c50.56-25.945,87.955-72.317,102.597-127.226l2.953-11.072c1.49-5.587,1.422-11.43-0.066-16.901
		c21.523-26.436,38.295-59.571,49.842-98.571c9.226-31.159,15.146-66.023,17.596-103.626
		C467.498,48.596,456.167,30.007,437.301,21.758z M36.183,38.251c9.469-4.141,23.45-4.499,34.288,6.912l78.789,82.958
		c3.295,3.471,5.8,7.509,7.448,12.005l4.242,11.558c-2.768,1.932-5.263,4.253-7.381,6.923l-14.512,18.298
		c-0.38-24.012-5.861-38.625-10.855-46.997c-3.214-5.387-10.884-5.766-14.691-0.781c-0.053,0.07-0.106,0.139-0.159,0.209
		c-2.179,2.853-2.465,6.753-0.639,9.844c4.485,7.595,11.238,25.659,7.033,62.076l-42.379,53.434
		C34.963,198.965,21.653,122.971,18.067,67.952C17.056,52.336,26.762,42.37,36.183,38.251z M216.639,427.558
		c4.539-2.365,8.734-5.527,12.395-9.454l0.457-0.49c1.311-1.406,2.527-2.881,3.646-4.416c1.118,1.535,2.335,3.011,3.646,4.417
		l0.455,0.488c3.662,3.928,7.857,7.09,12.396,9.456c-5.184,2.032-10.754,3.107-16.497,3.107
		C227.393,430.665,221.823,429.59,216.639,427.558z M255.104,350.504c-2.834,0.911-4.233,1.536-5.085,1.96
		c-6.629,3.299-12.379,8.029-16.882,13.752c-4.503-5.723-10.253-10.454-16.882-13.752c-0.852-0.424-2.252-1.049-5.086-1.96H255.104z
		 M381.403,283.576l-2.953,11.072c-10.117,37.94-32.173,71.395-62.335,95.652c0.689-5.167,0.761-10.383,0.228-15.536
		c16.352-26.546,40.943-40.216,41.197-40.355c4.357-2.373,5.974-7.828,3.608-12.193c-2.369-4.37-7.832-5.992-12.201-3.624
		c-1.026,0.556-21.233,11.697-38.905,33.905c-6.397-15.656-7.894-33.217-7.932-33.686c-0.382-4.956-4.717-8.661-9.666-8.28
		c-4.956,0.383-8.663,4.711-8.28,9.667c0.071,0.919,1.837,22.733,10.43,41.959c4.512,10.096,5.345,21.578,2.344,32.33
		c-2.707,9.698-10.163,16.912-19.945,19.297c-9.78,2.385-19.722-0.589-26.589-7.956l-0.455-0.488
		c-4.74-5.085-7.475-11.624-7.781-18.534c2.659-7.901,8.381-14.5,15.871-18.227c0.048-0.024,1.218-0.596,5.402-1.79
		c7.475-2.134,12.696-9.046,12.696-16.809c0-6.599-3.678-12.352-9.09-15.325l-5.867-52.157c-0.556-4.94-5.016-8.491-9.949-7.938
		c-4.939,0.556-8.493,5.01-7.938,9.95l5.399,47.994h-31.111l5.399-47.994c0.556-4.939-2.998-9.394-7.938-9.95
		c-4.938-0.553-9.394,2.999-9.949,7.938l-5.867,52.157c-5.412,2.973-9.089,8.727-9.089,15.325c0,7.763,5.221,14.675,12.696,16.809
		c4.183,1.194,5.354,1.766,5.402,1.79c7.489,3.726,13.211,10.326,15.871,18.227c-0.306,6.91-3.041,13.448-7.78,18.532l-0.457,0.49
		c-6.866,7.365-16.806,10.339-26.588,7.954c-9.783-2.385-17.239-9.598-19.945-19.297c-3.001-10.752-2.168-22.233,2.344-32.33
		c8.592-19.226,10.359-41.039,10.43-41.958c0.383-4.956-3.324-9.284-8.28-9.667c-4.952-0.384-9.284,3.324-9.667,8.28
		c-0.014,0.185-1.445,17.823-7.933,33.686c-17.672-22.208-37.88-33.349-38.906-33.905c-4.362-2.365-9.811-0.747-12.185,3.612
		c-2.374,4.359-0.763,9.822,3.591,12.204c0.254,0.139,24.845,13.809,41.197,40.356c-0.532,5.153-0.461,10.37,0.229,15.537
		c-30.162-24.258-52.218-57.713-62.335-95.654l-2.953-11.072c-1.172-4.396-0.185-9.149,2.643-12.714l80.159-101.069
		c1.916-2.416,4.453-4.261,7.339-5.339c15.886-5.57,32.454-8.77,49.126-9.619v66.67c0,4.97,4.029,9,9,9s9-4.03,9-9v-66.67
		c16.671,0.849,33.239,4.049,49.125,9.618c2.887,1.078,5.424,2.924,7.34,5.339l80.159,101.07
		C381.587,274.426,382.575,279.179,381.403,283.576z M448.206,67.949c-6.293,96.571-34.571,154.178-59.289,186.752l-42.388-53.446
		c-4.165-36.069,2.419-54.134,6.904-61.855c1.882-3.241,1.605-7.296-0.67-10.275h0c-3.808-4.985-11.477-4.605-14.69,0.782
		c-4.994,8.372-10.475,22.985-10.855,46.997l-14.512-18.298c-2.118-2.67-4.612-4.99-7.38-6.922l4.243-11.563
		c1.646-4.492,4.152-8.529,7.445-11.999l78.79-82.96c10.837-11.412,24.818-11.052,34.288-6.912
		C439.511,42.37,449.217,52.336,448.206,67.949z"/>
	<path d="M351.618,256.164l-8.661-3.511c-20.676-8.382-43.879-4.382-60.555,10.441c-1.84,1.635-3.872,1.646-4.92,1.507
		c-1.047-0.139-3.006-0.68-4.355-2.74l-9.362-14.289c-2.724-4.158-8.303-5.32-12.46-2.596c-4.158,2.724-5.32,8.302-2.596,12.46
		l9.362,14.29c3.019,4.607,7.484,7.994,12.626,9.695l-0.452,10.703c-0.176,4.171,2.54,7.916,6.56,9.045l15.018,4.216
		c3.989,1.12,8.052,1.671,12.087,1.671c9.059,0,17.976-2.778,25.581-8.134c8.821-6.211,14.962-15.251,17.536-25.508
		c3.98,0.543,7.973-1.635,9.552-5.528C358.444,263.279,356.224,258.031,351.618,256.164z M319.127,284.205
		c-6.55,4.611-14.729,6.015-22.44,3.85l-8.158-2.29l0.232-5.496c2.009-0.965,3.898-2.209,5.6-3.722
		c9.861-8.766,23.024-12.032,35.571-9.165C328.676,274.161,324.843,280.179,319.127,284.205z"/>
	<path d="M255.366,204.025c0.751,4.385,4.557,7.481,8.86,7.481c0.505,0,1.017-0.043,1.531-0.131c4.899-0.84,8.19-5.492,7.35-10.391
		l-6-35c-0.84-4.899-5.498-8.19-10.391-7.35c-4.899,0.84-8.19,5.492-7.35,10.391L255.366,204.025z"/>
</g>
<g>
</g>
<g>
</g>
<g>
</g>
<g>
</g>
<g>
</g>
<g>
</g>
<g>
</g>
<g>
</g>
<g>
</g>
<g>
</g>
<g>
</g>
<g>
</g>
<g>
</g>
<g>
</g>
<g>
</g>
</svg>
